<svg width="93" height="35" viewBox="0 0 93 35" fill="none" xmlns="http://www.w3.org/2000/svg">
<path d="M15.4859 2.00099C14.4624 2.02289 13.4733 2.54107 12.9241 3.45024C12.6865 3.84342 12.4914 4.63482 12.3319 5.56721C9.8064 6.12566 7.06559 8.76731 5.85036 11.8309C7.89738 12.564 9.94113 12.7719 11.7028 12.5896C7.5855 19.1405 8.27096 26.4368 15.0152 26.4378C15.6441 26.4378 16.2192 26.3775 16.7418 26.2595C20.7548 27.9036 23.7381 27.1881 25.2666 25.3679C26.8224 23.5153 26.8594 20.7328 25.4966 18.5713C24.249 16.5926 23.649 15.0353 23.6898 13.9291C23.7304 12.8228 24.2797 12.062 25.7634 11.3498L25.182 10.2424C23.441 11.0782 22.4493 12.3425 22.3925 13.8854C22.3356 15.4284 23.0807 17.1451 24.3838 19.212C25.4825 20.9544 25.4069 23.2191 24.2537 24.5923C23.2514 25.786 21.4261 26.4668 18.4684 25.5585C22.1575 23.2174 21.3415 16.6244 17.0867 10.9494C17.6487 11.1223 18.1272 11.2294 18.4489 11.2294C20.1229 11.2292 21.4814 9.93279 21.4814 8.33287C21.4814 6.75796 20.1646 5.4781 18.527 5.43843C18.7602 4.26207 18.211 3.0209 17.065 2.3884C16.5667 2.11352 16.0219 1.98925 15.4858 2.00073L15.4859 2.00099ZM5.73117 24.3375C2.24971 25.2416 0 26.5798 0 28.0654C0 30.7868 7.39586 33 16.5011 33C25.6064 33 33 30.7869 33 28.0654C33 26.5852 30.7701 25.2416 27.3101 24.3375C28.5063 24.9266 29.2212 25.6141 29.2212 26.3569C29.2212 28.4887 23.5076 30.2424 16.5011 30.2424C9.49466 30.2424 3.82222 28.4885 3.82222 26.3569C3.82222 25.6102 4.52281 24.9285 5.7311 24.3374L5.73117 24.3375Z" fill="white"/>
<path d="M40.1562 6.39062C40.6562 6.46875 41.1094 6.53906 41.5156 6.60156C41.9219 6.64844 42.2734 6.6875 42.5703 6.71875C42.9141 6.76562 43.2188 6.80469 43.4844 6.83594C43.8125 6.88281 44.3047 6.82812 44.9609 6.67188C45.6172 6.5 46.3359 6.34375 47.1172 6.20312C47.9141 6.04688 48.7266 5.96094 49.5547 5.94531C50.3828 5.91406 51.1406 6.0625 51.8281 6.39062C52.5156 6.71875 53.0781 7.04688 53.5156 7.375C53.9531 7.70312 54.2969 8.05469 54.5469 8.42969C54.8125 8.78906 55 9.17188 55.1094 9.57812C55.2188 9.98438 55.2812 10.4297 55.2969 10.9141C55.2812 11.6328 55.1094 12.3281 54.7812 13C54.6406 13.2812 54.4531 13.5781 54.2188 13.8906C54 14.1875 53.7266 14.4766 53.3984 14.7578C53.0703 15.0391 52.6797 15.3047 52.2266 15.5547C51.7891 15.8047 51.2734 16.0234 50.6797 16.2109C51.2578 16.3828 51.7344 16.5859 52.1094 16.8203C52.5 17.0547 52.8125 17.2734 53.0469 17.4766C53.3281 17.7266 53.5391 17.9688 53.6797 18.2031C53.8516 18.5312 53.9688 18.8125 54.0312 19.0469C54.0938 19.2812 54.1328 19.5078 54.1484 19.7266C54.1797 19.9297 54.2188 20.1406 54.2656 20.3594C54.3125 20.5781 54.4141 20.8281 54.5703 21.1094C54.6953 21.3281 54.8438 21.5547 55.0156 21.7891C55.1719 21.9922 55.3516 22.2109 55.5547 22.4453C55.7734 22.6797 56.0391 22.9062 56.3516 23.125C55.9141 23.1406 55.5078 23.1484 55.1328 23.1484C54.7734 23.1484 54.4609 23.1484 54.1953 23.1484C53.8828 23.1484 53.5859 23.1406 53.3047 23.125C53.0234 23.1094 52.6719 23.1016 52.25 23.1016C51.8906 23.1016 51.4297 23.1016 50.8672 23.1016C50.3203 23.1016 49.6562 23.1094 48.875 23.125C49.2188 22.8594 49.5 22.5938 49.7188 22.3281C49.9375 22.0625 50.1094 21.8203 50.2344 21.6016C50.375 21.3516 50.4766 21.1094 50.5391 20.875C50.6172 20.4531 50.625 20.0156 50.5625 19.5625C50.5156 19.1719 50.3906 18.7422 50.1875 18.2734C49.9844 17.7891 49.6562 17.3047 49.2031 16.8203C48.75 16.8984 48.3672 16.9609 48.0547 17.0078C47.7578 17.0391 47.5 17.0703 47.2812 17.1016C47.0312 17.1328 46.8281 17.1562 46.6719 17.1719C46.5312 17.1875 46.375 17.2031 46.2031 17.2188C46.0625 17.2344 45.9062 17.2578 45.7344 17.2891C45.5781 17.3047 45.4297 17.3281 45.2891 17.3594C45.2578 18.0312 45.2578 18.6172 45.2891 19.1172C45.3203 19.6016 45.3594 20.0078 45.4062 20.3359C45.4688 20.7266 45.5391 21.0625 45.6172 21.3438C45.6953 21.625 45.8047 21.8984 45.9453 22.1641C46.0547 22.3828 46.1953 22.6172 46.3672 22.8672C46.5391 23.1016 46.7344 23.2969 46.9531 23.4531C46.5469 23.4531 46.1562 23.4531 45.7812 23.4531C45.4219 23.4531 45.0938 23.4453 44.7969 23.4297C44.4531 23.4297 44.125 23.4219 43.8125 23.4062C43.5 23.3906 43.1484 23.3828 42.7578 23.3828C42.4297 23.3828 42.0391 23.3828 41.5859 23.3828C41.1484 23.3828 40.6719 23.3906 40.1562 23.4062C40.5625 22.9844 40.8828 22.625 41.1172 22.3281C41.3516 22.0312 41.5312 21.7812 41.6562 21.5781C41.7969 21.3594 41.8828 21.1719 41.9141 21.0156C41.9453 20.7656 41.9688 20.3203 41.9844 19.6797C42.0156 19.0234 42.0391 18.2734 42.0547 17.4297C42.0703 16.5859 42.0781 15.7031 42.0781 14.7812C42.0781 13.8594 42.0703 13 42.0547 12.2031C42.0391 11.3906 42.0234 10.6953 42.0078 10.1172C41.9922 9.53906 41.9766 9.17188 41.9609 9.01562C41.9141 8.73438 41.8125 8.45312 41.6562 8.17188C41.5312 7.92188 41.3516 7.64063 41.1172 7.32812C40.8828 7.01562 40.5625 6.70313 40.1562 6.39062ZM49.0156 14.6406C49.1719 14.5469 49.3047 14.4531 49.4141 14.3594C49.5234 14.2656 49.6172 14.1172 49.6953 13.9141C49.7734 13.6953 49.8359 13.3906 49.8828 13C49.9453 12.6094 50.0156 12.0781 50.0938 11.4062C50.1562 10.7344 50.1094 10.1797 49.9531 9.74219C49.8125 9.30469 49.6172 8.96094 49.3672 8.71094C49.1328 8.44531 48.8672 8.26562 48.5703 8.17188C48.2891 8.0625 48.0391 8.00781 47.8203 8.00781C47.3828 8.00781 46.9531 8.14062 46.5312 8.40625C46.1094 8.67188 45.7891 9.03125 45.5703 9.48438C45.4922 9.6875 45.4219 10.0234 45.3594 10.4922C45.3125 10.8984 45.2812 11.4609 45.2656 12.1797C45.25 12.8984 45.2734 13.8438 45.3359 15.0156C45.9297 15.1094 46.4531 15.1484 46.9062 15.1328C47.3594 15.1016 47.7422 15.0469 48.0547 14.9688C48.4297 14.8906 48.75 14.7812 49.0156 14.6406ZM57.9922 14.0078C58.0703 13.9141 58.1172 13.7422 58.1328 13.4922C58.1641 13.2266 58.2266 12.9297 58.3203 12.6016C58.4297 12.2734 58.6094 11.9297 58.8594 11.5703C59.1094 11.2109 59.5156 10.875 60.0781 10.5625C60.625 10.25 61.1562 10.0625 61.6719 10C62.1875 9.9375 62.6797 9.96094 63.1484 10.0703C63.6172 10.1797 64.0547 10.3516 64.4609 10.5859C64.8828 10.8203 65.2656 11.0781 65.6094 11.3594C65.8438 11.5469 66.0312 11.8203 66.1719 12.1797C66.3125 12.5234 66.4219 12.9141 66.5 13.3516C66.5781 13.7891 66.6328 14.25 66.6641 14.7344C66.7109 15.2031 66.7422 15.6641 66.7578 16.1172C66.7734 16.5547 66.7812 16.9609 66.7812 17.3359C66.7969 17.6953 66.8281 17.9922 66.875 18.2266C66.9375 18.5703 67.0469 18.8672 67.2031 19.1172C67.3594 19.3516 67.5312 19.5547 67.7188 19.7266C67.9062 19.8828 68.0938 20.0078 68.2812 20.1016C68.4688 20.1953 68.6328 20.2656 68.7734 20.3125C68.8672 20.3594 68.9531 20.3906 69.0312 20.4062C69.1875 20.4688 69.2969 20.4688 69.3594 20.4062C69.2656 20.625 69.1797 20.8125 69.1016 20.9688C69.0234 21.125 68.9609 21.2578 68.9141 21.3672C68.8516 21.4922 68.7969 21.5938 68.75 21.6719C68.7031 21.7656 68.6484 21.8516 68.5859 21.9297C68.5391 22.0078 68.4766 22.0938 68.3984 22.1875C68.3203 22.2812 68.2422 22.3828 68.1641 22.4922C67.9609 22.4141 67.7656 22.3203 67.5781 22.2109C67.4062 22.1016 67.25 22 67.1094 21.9062C66.9375 21.7969 66.7812 21.6875 66.6406 21.5781C66.5 21.4688 66.3672 21.3438 66.2422 21.2031C66.1328 21.0781 66.0156 20.9453 65.8906 20.8047C65.7812 20.6641 65.6875 20.5078 65.6094 20.3359C65.5156 20.5391 65.2891 20.8281 64.9297 21.2031C64.5859 21.5781 64.1328 21.9219 63.5703 22.2344C63.0078 22.5312 62.3516 22.7422 61.6016 22.8672C60.8672 22.9922 60.0547 22.9062 59.1641 22.6094C58.7734 22.4844 58.4062 22.3047 58.0625 22.0703C57.7188 21.8203 57.4219 21.5234 57.1719 21.1797C56.9375 20.8359 56.7656 20.4453 56.6562 20.0078C56.5625 19.5547 56.5703 19.0547 56.6797 18.5078C56.7891 17.9609 56.9844 17.5 57.2656 17.125C57.5469 16.75 57.8828 16.4453 58.2734 16.2109C58.6641 15.9766 59.1016 15.7969 59.5859 15.6719C60.0703 15.5469 60.5703 15.4609 61.0859 15.4141C61.4922 15.3984 61.8984 15.4219 62.3047 15.4844C62.6484 15.5469 63.0078 15.6641 63.3828 15.8359C63.7578 15.9922 64.0781 16.2344 64.3438 16.5625C64.3281 15.7344 64.2969 15.0781 64.25 14.5938C64.2188 14.0938 64.1875 13.7109 64.1562 13.4453C64.0938 13.1328 64.0391 12.9141 63.9922 12.7891C63.9141 12.6797 63.8281 12.5547 63.7344 12.4141C63.6562 12.2734 63.5547 12.1484 63.4297 12.0391C63.3047 11.9141 63.1484 11.8125 62.9609 11.7344C62.7734 11.6562 62.5547 11.625 62.3047 11.6406C62.0391 11.6562 61.8281 11.7266 61.6719 11.8516C61.5156 11.9766 61.3906 12.125 61.2969 12.2969C61.2188 12.4531 61.1719 12.625 61.1562 12.8125C61.1406 13 61.1484 13.1641 61.1797 13.3047C61.2109 13.3984 61.2578 13.5 61.3203 13.6094C61.3828 13.7031 61.4688 13.8047 61.5781 13.9141C61.6875 14.0234 61.8359 14.1172 62.0234 14.1953C61.6641 14.2422 61.3438 14.2812 61.0625 14.3125C60.7812 14.3281 60.5391 14.3516 60.3359 14.3828C60.1016 14.4141 59.8984 14.4375 59.7266 14.4531C59.5547 14.4688 59.3516 14.5 59.1172 14.5469C58.9141 14.5781 58.6641 14.6172 58.3672 14.6641C58.0703 14.7109 57.7266 14.7734 57.3359 14.8516C57.4297 14.7422 57.5156 14.6406 57.5938 14.5469C57.6719 14.4375 57.7422 14.3438 57.8047 14.2656C57.8672 14.1719 57.9297 14.0859 57.9922 14.0078ZM61.5078 16.7969C61.2266 16.8125 60.9453 16.8828 60.6641 17.0078C60.3828 17.1172 60.1328 17.2812 59.9141 17.5C59.6953 17.7031 59.5078 17.9453 59.3516 18.2266C59.2109 18.4922 59.1406 18.7891 59.1406 19.1172C59.1406 19.4453 59.2188 19.7344 59.375 19.9844C59.5469 20.2188 59.7656 20.4141 60.0312 20.5703C60.3125 20.7266 60.6094 20.8203 60.9219 20.8516C61.25 20.8828 61.5703 20.8516 61.8828 20.7578C62.1797 20.6484 62.4609 20.4766 62.7266 20.2422C62.9922 19.9922 63.2188 19.7266 63.4062 19.4453C63.5938 19.1484 63.7266 18.8594 63.8047 18.5781C63.8828 18.2812 63.8906 18.0391 63.8281 17.8516C63.7031 17.4453 63.4219 17.1641 62.9844 17.0078C62.5469 16.8359 62.0547 16.7656 61.5078 16.7969ZM68.8438 8.73438C69.3125 8.78125 69.7031 8.82031 70.0156 8.85156C70.3438 8.88281 70.6094 8.90625 70.8125 8.92188C71.0469 8.9375 71.2344 8.94531 71.375 8.94531C71.5156 8.96094 71.7031 8.96094 71.9375 8.94531C72.1406 8.92969 72.4062 8.91406 72.7344 8.89844C73.0625 8.86719 73.4766 8.82031 73.9766 8.75781C73.8672 8.91406 73.7812 9.05469 73.7188 9.17969C73.6562 9.28906 73.6016 9.39062 73.5547 9.48438L73.4141 9.76562C73.3828 9.85938 73.3516 9.95312 73.3203 10.0469C73.2891 10.125 73.2578 10.2188 73.2266 10.3281C73.2109 10.4375 73.1953 10.5547 73.1797 10.6797H76.7891L76.4609 12.5781L73.1562 12.3906C73.0781 13.1875 73.0234 13.8047 72.9922 14.2422C72.9609 14.6797 72.9297 15 72.8984 15.2031L72.8516 15.625C72.8047 16.2188 72.7578 16.8672 72.7109 17.5703C72.6641 18.2578 72.6484 18.8984 72.6641 19.4922C72.6797 20.0859 72.7344 20.5859 72.8281 20.9922C72.9219 21.3828 73.0859 21.5781 73.3203 21.5781C73.5547 21.5781 73.7734 21.5156 73.9766 21.3906C74.1797 21.2656 74.3516 21.1172 74.4922 20.9453C74.6484 20.7734 74.7656 20.6016 74.8438 20.4297C74.9219 20.2422 74.9609 20.1016 74.9609 20.0078C74.9609 19.9141 74.9375 19.8047 74.8906 19.6797C74.8125 19.4453 74.6719 19.1484 74.4688 18.7891C74.9219 18.8984 75.3203 19.0078 75.6641 19.1172C75.8359 19.1797 75.9922 19.2422 76.1328 19.3047C76.2891 19.3672 76.4688 19.4375 76.6719 19.5156C76.8438 19.5938 77.0625 19.6875 77.3281 19.7969C77.5938 19.9062 77.9062 20.0391 78.2656 20.1953C77.9219 20.2578 77.6719 20.3594 77.5156 20.5C77.4219 20.5625 77.3516 20.6328 77.3047 20.7109C77.1953 20.8828 77.0703 21.1172 76.9297 21.4141C76.7891 21.6953 76.5781 21.9766 76.2969 22.2578C76.0156 22.5391 75.6328 22.7891 75.1484 23.0078C74.6797 23.2266 74.0469 23.3516 73.25 23.3828C72.4219 23.4141 71.7891 23.2734 71.3516 22.9609C70.9297 22.6484 70.6172 22.2891 70.4141 21.8828C70.2266 21.4609 70.1172 21.0469 70.0859 20.6406C70.0547 20.2344 70.0312 19.9609 70.0156 19.8203C70 19.6797 70 19.3281 70.0156 18.7656C70.0312 18.2031 70.0547 17.5859 70.0859 16.9141C70.1172 16.2266 70.1484 15.5703 70.1797 14.9453C70.2109 14.3047 70.2266 13.8359 70.2266 13.5391C70.2266 13.3828 70.2344 13.2188 70.25 13.0469C70.25 12.9062 70.25 12.7578 70.25 12.6016C70.2656 12.4297 70.2734 12.2656 70.2734 12.1094L66.875 12.0859L66.7344 10.75L70.1562 10.8438C70.125 10.6719 70.0859 10.5156 70.0391 10.375C70.0078 10.2188 69.9766 10.0938 69.9453 10C69.8984 9.89062 69.8516 9.79688 69.8047 9.71875C69.7422 9.64062 69.6719 9.55469 69.5938 9.46094C69.5156 9.38281 69.4141 9.28125 69.2891 9.15625C69.1641 9.03125 69.0156 8.89062 68.8438 8.73438ZM83.5859 13C83.9922 13 84.4141 13.0781 84.8516 13.2344C85.2891 13.375 85.7109 13.5625 86.1172 13.7969C86.5234 14.0156 86.8906 14.2578 87.2188 14.5234C87.5625 14.7734 87.8438 15.0156 88.0625 15.25C88.4531 15.6719 88.7188 16.2422 88.8594 16.9609C89.0156 17.6641 89.0469 18.3906 88.9531 19.1406C88.8594 19.875 88.6406 20.5703 88.2969 21.2266C87.9531 21.8828 87.4766 22.3672 86.8672 22.6797C86.4297 22.8984 86 23.0703 85.5781 23.1953C85.1562 23.3203 84.75 23.4141 84.3594 23.4766C83.9688 23.5391 83.6016 23.5703 83.2578 23.5703C82.9141 23.5703 82.6172 23.5625 82.3672 23.5469C81.8984 23.5156 81.4062 23.3516 80.8906 23.0547C80.3906 22.7578 79.9141 22.3906 79.4609 21.9531C79.0234 21.5156 78.6484 21.0391 78.3359 20.5234C78.0234 19.9922 77.8359 19.4922 77.7734 19.0234C77.6797 18.3828 77.6641 17.7109 77.7266 17.0078C77.7891 16.3047 78.0156 15.6562 78.4062 15.0625C78.8125 14.4688 79.4219 13.9766 80.2344 13.5859C81.0625 13.1953 82.1797 13 83.5859 13ZM82.8125 22.0938C82.9844 22.125 83.2188 22.0859 83.5156 21.9766C83.8125 21.8516 84.1016 21.6562 84.3828 21.3906C84.6797 21.125 84.9375 20.7891 85.1562 20.3828C85.3906 19.9609 85.5312 19.4531 85.5781 18.8594C85.625 18.2812 85.625 17.75 85.5781 17.2656C85.5469 16.7812 85.4766 16.3594 85.3672 16C85.2578 15.625 85.1328 15.3203 84.9922 15.0859C84.8516 14.8516 84.7031 14.6875 84.5469 14.5938C84.2812 14.4531 83.9609 14.3438 83.5859 14.2656C83.2109 14.1719 82.8906 14.1875 82.625 14.3125C82.5 14.375 82.3438 14.5078 82.1562 14.7109C81.9688 14.9141 81.7812 15.1719 81.5938 15.4844C81.4062 15.7812 81.2344 16.125 81.0781 16.5156C80.9375 16.9062 80.8359 17.3125 80.7734 17.7344C80.7109 18.1562 80.6953 18.6094 80.7266 19.0938C80.7734 19.5781 80.875 20.0391 81.0312 20.4766C81.1875 20.8984 81.4062 21.2656 81.6875 21.5781C81.9844 21.875 82.3594 22.0469 82.8125 22.0938Z" fill="white"/>
<path d="M42.5 32.5V26.14H40.04V25.5H45.7V26.14H43.24V32.5H42.5ZM49.7292 32.5V31.34L49.6992 31.15V29.21C49.6992 28.7633 49.5726 28.42 49.3192 28.18C49.0726 27.94 48.7026 27.82 48.2092 27.82C47.8692 27.82 47.5459 27.8767 47.2392 27.99C46.9326 28.1033 46.6726 28.2533 46.4592 28.44L46.1392 27.91C46.4059 27.6833 46.7259 27.51 47.0992 27.39C47.4726 27.2633 47.8659 27.2 48.2792 27.2C48.9592 27.2 49.4826 27.37 49.8492 27.71C50.2226 28.0433 50.4092 28.5533 50.4092 29.24V32.5H49.7292ZM47.9192 32.55C47.5259 32.55 47.1826 32.4867 46.8892 32.36C46.6026 32.2267 46.3826 32.0467 46.2292 31.82C46.0759 31.5867 45.9992 31.32 45.9992 31.02C45.9992 30.7467 46.0626 30.5 46.1892 30.28C46.3226 30.0533 46.5359 29.8733 46.8292 29.74C47.1292 29.6 47.5292 29.53 48.0292 29.53H49.8392V30.06H48.0492C47.5426 30.06 47.1892 30.15 46.9892 30.33C46.7959 30.51 46.6992 30.7333 46.6992 31C46.6992 31.3 46.8159 31.54 47.0492 31.72C47.2826 31.9 47.6092 31.99 48.0292 31.99C48.4292 31.99 48.7726 31.9 49.0592 31.72C49.3526 31.5333 49.5659 31.2667 49.6992 30.92L49.8592 31.41C49.7259 31.7567 49.4926 32.0333 49.1592 32.24C48.8326 32.4467 48.4192 32.55 47.9192 32.55ZM53.9977 32.55C53.5043 32.55 53.1243 32.4167 52.8577 32.15C52.591 31.8833 52.4577 31.5067 52.4577 31.02V26.09H53.1677V30.98C53.1677 31.2867 53.2443 31.5233 53.3977 31.69C53.5577 31.8567 53.7843 31.94 54.0777 31.94C54.391 31.94 54.651 31.85 54.8577 31.67L55.1077 32.18C54.9677 32.3067 54.7977 32.4 54.5977 32.46C54.4043 32.52 54.2043 32.55 53.9977 32.55ZM51.5177 27.84V27.25H54.7677V27.84H51.5177ZM57.9234 32.55C57.4301 32.55 57.0501 32.4167 56.7834 32.15C56.5168 31.8833 56.3834 31.5067 56.3834 31.02V26.09H57.0934V30.98C57.0934 31.2867 57.1701 31.5233 57.3234 31.69C57.4834 31.8567 57.7101 31.94 58.0034 31.94C58.3168 31.94 58.5768 31.85 58.7834 31.67L59.0334 32.18C58.8934 32.3067 58.7234 32.4 58.5234 32.46C58.3301 32.52 58.1301 32.55 57.9234 32.55ZM55.4434 27.84V27.25H58.6934V27.84H55.4434ZM62.2804 32.55C61.7737 32.55 61.3171 32.4367 60.9104 32.21C60.5104 31.9767 60.1937 31.66 59.9604 31.26C59.7271 30.8533 59.6104 30.39 59.6104 29.87C59.6104 29.3433 59.7271 28.88 59.9604 28.48C60.1937 28.08 60.5104 27.7667 60.9104 27.54C61.3104 27.3133 61.7671 27.2 62.2804 27.2C62.8004 27.2 63.2604 27.3133 63.6604 27.54C64.0671 27.7667 64.3837 28.08 64.6104 28.48C64.8437 28.88 64.9604 29.3433 64.9604 29.87C64.9604 30.39 64.8437 30.8533 64.6104 31.26C64.3837 31.66 64.0671 31.9767 63.6604 32.21C63.2537 32.4367 62.7937 32.55 62.2804 32.55ZM62.2804 31.92C62.6604 31.92 62.9971 31.8367 63.2904 31.67C63.5837 31.4967 63.8137 31.2567 63.9804 30.95C64.1537 30.6367 64.2404 30.2767 64.2404 29.87C64.2404 29.4567 64.1537 29.0967 63.9804 28.79C63.8137 28.4833 63.5837 28.2467 63.2904 28.08C62.9971 27.9067 62.6637 27.82 62.2904 27.82C61.9171 27.82 61.5837 27.9067 61.2904 28.08C60.9971 28.2467 60.7637 28.4833 60.5904 28.79C60.4171 29.0967 60.3304 29.4567 60.3304 29.87C60.3304 30.2767 60.4171 30.6367 60.5904 30.95C60.7637 31.2567 60.9971 31.4967 61.2904 31.67C61.5837 31.8367 61.9137 31.92 62.2804 31.92ZM68.5499 32.55C68.0433 32.55 67.5866 32.4367 67.1799 32.21C66.7799 31.9767 66.4633 31.66 66.2299 31.26C65.9966 30.8533 65.8799 30.39 65.8799 29.87C65.8799 29.3433 65.9966 28.88 66.2299 28.48C66.4633 28.08 66.7799 27.7667 67.1799 27.54C67.5799 27.3133 68.0366 27.2 68.5499 27.2C69.0699 27.2 69.5299 27.3133 69.9299 27.54C70.3366 27.7667 70.6533 28.08 70.8799 28.48C71.1133 28.88 71.2299 29.3433 71.2299 29.87C71.2299 30.39 71.1133 30.8533 70.8799 31.26C70.6533 31.66 70.3366 31.9767 69.9299 32.21C69.5233 32.4367 69.0633 32.55 68.5499 32.55ZM68.5499 31.92C68.9299 31.92 69.2666 31.8367 69.5599 31.67C69.8533 31.4967 70.0833 31.2567 70.2499 30.95C70.4233 30.6367 70.5099 30.2767 70.5099 29.87C70.5099 29.4567 70.4233 29.0967 70.2499 28.79C70.0833 28.4833 69.8533 28.2467 69.5599 28.08C69.2666 27.9067 68.9333 27.82 68.5599 27.82C68.1866 27.82 67.8533 27.9067 67.5599 28.08C67.2666 28.2467 67.0333 28.4833 66.8599 28.79C66.6866 29.0967 66.5999 29.4567 66.5999 29.87C66.5999 30.2767 66.6866 30.6367 66.8599 30.95C67.0333 31.2567 67.2666 31.4967 67.5599 31.67C67.8533 31.8367 68.1833 31.92 68.5499 31.92ZM74.3266 32.5L77.5266 25.5H78.2566L81.4566 32.5H80.6766L77.7366 25.93H78.0366L75.0966 32.5H74.3266ZM75.5866 30.63L75.8066 30.03H79.8766L80.0966 30.63H75.5866ZM82.4646 32.5V27.25H83.1446V28.68L83.0746 28.43C83.2213 28.03 83.4679 27.7267 83.8146 27.52C84.1613 27.3067 84.5913 27.2 85.1046 27.2V27.89C85.0779 27.89 85.0513 27.89 85.0246 27.89C84.9979 27.8833 84.9713 27.88 84.9446 27.88C84.3913 27.88 83.9579 28.05 83.6446 28.39C83.3313 28.7233 83.1746 29.2 83.1746 29.82V32.5H82.4646ZM88.2848 32.55C87.7914 32.55 87.4114 32.4167 87.1448 32.15C86.8781 31.8833 86.7448 31.5067 86.7448 31.02V26.09H87.4548V30.98C87.4548 31.2867 87.5314 31.5233 87.6848 31.69C87.8448 31.8567 88.0714 31.94 88.3648 31.94C88.6781 31.94 88.9381 31.85 89.1448 31.67L89.3948 32.18C89.2548 32.3067 89.0848 32.4 88.8848 32.46C88.6914 32.52 88.4914 32.55 88.2848 32.55ZM85.8048 27.84V27.25H89.0548V27.84H85.8048Z" fill="white"/>
</svg>
