<svg width="650" height="97" viewBox="0 0 650 97" fill="none" xmlns="http://www.w3.org/2000/svg">
<path d="M29.184 95H28.184V96H29.184V95ZM29.184 22.296H30.184V21.296H29.184V22.296ZM0.512 22.296H-0.488V23.296H0.512V22.296ZM0.512 5.39999V4.39999H-0.488V5.39999H0.512ZM78.592 5.39999H79.592V4.39999H78.592V5.39999ZM78.592 22.296V23.296H79.592V22.296H78.592ZM49.92 22.296V21.296H48.92V22.296H49.92ZM49.92 95V96H50.92V95H49.92ZM30.184 95V22.296H28.184V95H30.184ZM29.184 21.296H0.512V23.296H29.184V21.296ZM1.512 22.296V5.39999H-0.488V22.296H1.512ZM0.512 6.39999H78.592V4.39999H0.512V6.39999ZM77.592 5.39999V22.296H79.592V5.39999H77.592ZM78.592 21.296H49.92V23.296H78.592V21.296ZM48.92 22.296V95H50.92V22.296H48.92ZM49.92 94H29.184V96H49.92V94ZM86.841 95H85.841V96H86.841V95ZM86.841 26.136V25.136H85.841V26.136H86.841ZM105.913 26.136H106.913V25.136H105.913V26.136ZM105.913 45.592L105.011 46.0227L106.913 45.592H105.913ZM103.225 39.96L102.303 39.5719L102.129 39.9856L102.323 40.3907L103.225 39.96ZM113.081 28.952L113.561 29.8293L113.567 29.8258L113.574 29.8223L113.081 28.952ZM129.593 25.112H130.593V24.112H129.593V25.112ZM129.593 43.544L129.493 44.539L130.593 44.649V43.544H129.593ZM127.289 43.416L127.165 44.4083L127.227 44.416H127.289V43.416ZM111.801 48.024L112.479 48.7588L112.48 48.7581L111.801 48.024ZM106.809 95V96H107.809V95H106.809ZM87.841 95V26.136H85.841V95H87.841ZM86.841 27.136H105.913V25.136H86.841V27.136ZM104.913 26.136V45.592H106.913V26.136H104.913ZM106.815 45.1613L104.127 39.5293L102.323 40.3907L105.011 46.0227L106.815 45.1613ZM104.147 40.3481C106.109 35.687 109.242 32.1927 113.561 29.8293L112.601 28.0747C107.875 30.6606 104.437 34.505 102.303 39.5719L104.147 40.3481ZM113.574 29.8223C117.913 27.3659 123.238 26.112 129.593 26.112V24.112C122.977 24.112 117.294 25.4181 112.588 28.0817L113.574 29.8223ZM128.593 25.112V43.544H130.593V25.112H128.593ZM129.693 42.549C128.814 42.4611 128.012 42.416 127.289 42.416V44.416C127.931 44.416 128.665 44.4562 129.493 44.539L129.693 42.549ZM127.413 42.4237C126.685 42.3327 125.918 42.288 125.113 42.288V44.288C125.844 44.288 126.528 44.3286 127.165 44.4083L127.413 42.4237ZM125.113 42.288C119.447 42.288 114.752 43.9323 111.122 47.2899L112.48 48.7581C115.677 45.801 119.857 44.288 125.113 44.288V42.288ZM111.123 47.2892C107.512 50.6225 105.809 55.7658 105.809 62.488H107.809C107.809 56.0689 109.434 51.5695 112.479 48.7588L111.123 47.2892ZM105.809 62.488V95H107.809V62.488H105.809ZM106.809 94H86.841V96H106.809V94ZM179.206 95H178.206V96H179.206V95ZM179.206 81.56H180.206V81.352L180.123 81.1613L179.206 81.56ZM177.926 78.616H176.926V78.824L177.009 79.0147L177.926 78.616ZM173.958 44.568L173.276 45.299L173.282 45.3046L173.288 45.3101L173.958 44.568ZM151.174 42.776L151.476 43.7292L151.483 43.727L151.49 43.7247L151.174 42.776ZM142.214 47.384L141.325 47.841L141.881 48.9243L142.835 48.1675L142.214 47.384ZM135.046 33.432L134.47 32.6145L133.759 33.1154L134.157 33.889L135.046 33.432ZM148.614 27.288L148.35 26.3236L148.614 27.288ZM189.19 32.536L189.839 31.7752L189.19 32.536ZM197.894 95V96H198.894V95H197.894ZM144.39 93.336L143.951 94.2344L143.959 94.2384L143.967 94.2422L144.39 93.336ZM135.558 85.784L136.397 85.2398L135.558 85.784ZM135.43 64.408L134.598 63.8533L134.593 63.8614L134.587 63.8696L135.43 64.408ZM145.03 57.24L145.395 58.171L145.403 58.1679L145.411 58.1647L145.03 57.24ZM180.358 54.552H181.358V53.552H180.358V54.552ZM180.358 66.2V67.2H181.358V66.2H180.358ZM154.502 68.504L153.851 67.7447L153.842 67.7526L153.833 67.7607L154.502 68.504ZM154.886 80.408L154.27 81.1955L154.288 81.2102L154.308 81.224L154.886 80.408ZM172.166 80.28L172.668 81.1448L172.678 81.1388L172.689 81.1326L172.166 80.28ZM177.926 73.24L178.875 72.9238L177.998 70.2949L176.994 72.8776L177.926 73.24ZM180.998 82.456L181.949 82.7667L182.051 82.453L181.947 82.1398L180.998 82.456ZM173.062 92.568L172.548 91.7105L173.062 92.568ZM180.206 95V81.56H178.206V95H180.206ZM180.123 81.1613L178.843 78.2173L177.009 79.0147L178.289 81.9587L180.123 81.1613ZM178.926 78.616V54.552H176.926V78.616H178.926ZM178.926 54.552C178.926 50.0631 177.525 46.442 174.628 43.8259L173.288 45.3101C175.682 47.4727 176.926 50.5075 176.926 54.552H178.926ZM174.64 43.8369C171.817 41.2022 167.552 39.984 162.054 39.984V41.984C167.308 41.984 170.979 43.1551 173.276 45.299L174.64 43.8369ZM162.054 39.984C158.274 39.984 154.541 40.5997 150.858 41.8273L151.49 43.7247C154.975 42.563 158.495 41.984 162.054 41.984V39.984ZM150.872 41.8228C147.276 42.963 144.177 44.5512 141.593 46.6005L142.835 48.1675C145.201 46.2915 148.075 44.8077 151.476 43.7292L150.872 41.8228ZM143.103 46.927L135.935 32.975L134.157 33.889L141.325 47.841L143.103 46.927ZM135.622 34.2495C139.266 31.6823 143.678 29.6783 148.878 28.2524L148.35 26.3236C142.968 27.7991 138.336 29.891 134.47 32.6145L135.622 34.2495ZM148.878 28.2524C154.083 26.8253 159.37 26.112 164.742 26.112V24.112C159.191 24.112 153.726 24.8494 148.35 26.3236L148.878 28.2524ZM164.742 26.112C175.089 26.112 182.977 28.5513 188.541 33.2968L189.839 31.7752C183.797 26.622 175.387 24.112 164.742 24.112V26.112ZM188.541 33.2968C194.046 37.9922 196.894 45.3853 196.894 55.704H198.894C198.894 45.0307 195.939 36.9784 189.839 31.7752L188.541 33.2968ZM196.894 55.704V95H198.894V55.704H196.894ZM197.894 94H179.206V96H197.894V94ZM158.214 95.024C152.946 95.024 148.49 94.1458 144.813 92.4298L143.967 94.2422C147.97 96.1102 152.73 97.024 158.214 97.024V95.024ZM144.829 92.4376C141.13 90.6289 138.333 88.2252 136.397 85.2398L134.719 86.3282C136.879 89.6574 139.97 92.2885 143.951 94.2344L144.829 92.4376ZM136.397 85.2398C134.459 82.2517 133.486 78.9009 133.486 75.16H131.486C131.486 79.2697 132.561 83.0016 134.719 86.3282L136.397 85.2398ZM133.486 75.16C133.486 71.2305 134.425 67.8383 136.273 64.9464L134.587 63.8696C132.51 67.1217 131.486 70.8975 131.486 75.16H133.486ZM136.262 64.9627C138.17 62.1013 141.183 59.8229 145.395 58.171L144.665 56.309C140.173 58.0705 136.786 60.5707 134.598 63.8533L136.262 64.9627ZM145.411 58.1647C149.598 56.4405 155.13 55.552 162.054 55.552V53.552C154.984 53.552 149.166 54.4555 144.649 56.3153L145.411 58.1647ZM162.054 55.552H180.358V53.552H162.054V55.552ZM179.358 54.552V66.2H181.358V54.552H179.358ZM180.358 65.2H164.23V67.2H180.358V65.2ZM164.23 65.2C159.499 65.2 155.934 65.9595 153.851 67.7447L155.153 69.2633C156.654 67.9765 159.574 67.2 164.23 67.2V65.2ZM153.833 67.7607C151.915 69.4871 150.942 71.6776 150.942 74.264H152.942C152.942 72.2424 153.676 70.5929 155.171 69.2473L153.833 67.7607ZM150.942 74.264C150.942 77.1218 152.057 79.464 154.27 81.1955L155.502 79.6205C153.789 78.28 152.942 76.5262 152.942 74.264H150.942ZM154.308 81.224C156.58 82.8332 159.579 83.584 163.206 83.584V81.584C159.835 81.584 157.288 80.8841 155.464 79.592L154.308 81.224ZM163.206 83.584C166.694 83.584 169.857 82.7771 172.668 81.1448L171.664 79.4152C169.184 80.8549 166.374 81.584 163.206 81.584V83.584ZM172.689 81.1326C175.532 79.3897 177.589 76.8646 178.858 73.6024L176.994 72.8776C175.873 75.7594 174.09 77.9277 171.643 79.4274L172.689 81.1326ZM176.977 73.5562L180.049 82.7722L181.947 82.1398L178.875 72.9238L176.977 73.5562ZM180.048 82.1453C178.668 86.3644 176.172 89.536 172.548 91.7105L173.576 93.4255C177.632 90.992 180.426 87.4222 181.949 82.7667L180.048 82.1453ZM172.548 91.7105C168.908 93.8939 164.153 95.024 158.214 95.024V97.024C164.392 97.024 169.536 95.8501 173.576 93.4255L172.548 91.7105ZM241.054 92.184L241.561 91.3221L241.054 92.184ZM231.07 80.536L230.153 80.9353L230.156 80.9408L231.07 80.536ZM231.198 40.6L230.295 40.1706L230.289 40.1828L231.198 40.6ZM241.438 28.952L240.931 28.0901L241.438 28.952ZM274.078 29.464L273.585 30.334L273.591 30.3375L274.078 29.464ZM286.366 41.752L285.495 42.2436L285.501 42.2541L286.366 41.752ZM286.366 79.256L285.501 78.7538L285.495 78.7644L286.366 79.256ZM274.078 91.672L274.571 92.542L274.576 92.5394L274.078 91.672ZM215.966 95H214.966V96H215.966V95ZM215.966 0.0239944V-0.976006H214.966V0.0239944H215.966ZM235.934 0.0239944H236.934V-0.976006H235.934V0.0239944ZM235.934 40.088L236.932 40.1508L236.934 40.1194V40.088H235.934ZM234.654 60.44L233.656 60.3772L233.653 60.418L233.654 60.4587L234.654 60.44ZM235.038 80.92H236.038V80.9106L236.038 80.9013L235.038 80.92ZM235.038 95V96H236.038V95H235.038ZM262.046 77.336L261.544 76.4712L261.538 76.4748L261.531 76.4785L262.046 77.336ZM268.318 70.808L267.445 70.3202L267.44 70.3291L268.318 70.808ZM268.318 50.328L267.44 50.8069L267.446 50.817L267.451 50.827L268.318 50.328ZM262.046 43.8L261.531 44.6575L261.538 44.6612L261.544 44.6648L262.046 43.8ZM244.254 43.8L244.756 44.6648L244.254 43.8ZM237.982 50.328L238.86 50.8069L237.982 50.328ZM237.982 70.808L237.098 71.2759L237.104 71.2868L237.982 70.808ZM244.254 77.336L244.756 76.4712L244.254 77.336ZM256.67 95.024C250.754 95.024 245.731 93.7751 241.561 91.3221L240.547 93.0459C245.081 95.7129 250.469 97.024 256.67 97.024V95.024ZM241.561 91.3221C237.412 88.8814 234.215 85.1707 231.984 80.1312L230.156 80.9408C232.533 86.3119 235.992 90.3666 240.547 93.0459L241.561 91.3221ZM231.987 80.1367C229.755 75.011 228.614 68.502 228.614 60.568H226.614C226.614 68.6767 227.777 75.4797 230.153 80.9353L231.987 80.1367ZM228.614 60.568C228.614 52.5497 229.797 46.049 232.107 41.0172L230.289 40.1828C227.82 45.5616 226.614 52.373 226.614 60.568H228.614ZM232.101 41.0294C234.503 35.9782 237.789 32.2587 241.945 29.8139L240.931 28.0901C236.383 30.7653 232.843 34.8111 230.295 40.1706L232.101 41.0294ZM241.945 29.8139C246.122 27.3571 251.019 26.112 256.67 26.112V24.112C250.716 24.112 245.458 25.4269 240.931 28.0901L241.945 29.8139ZM256.67 26.112C263.001 26.112 268.63 27.5264 273.585 30.334L274.571 28.594C269.286 25.599 263.31 24.112 256.67 24.112V26.112ZM273.591 30.3375C278.633 33.1474 282.597 37.1098 285.495 42.2436L287.237 41.2604C284.162 35.8128 279.934 31.5832 274.565 28.5905L273.591 30.3375ZM285.501 42.2541C288.469 47.3661 289.974 53.4581 289.974 60.568H291.974C291.974 53.1712 290.407 46.7192 287.231 41.2499L285.501 42.2541ZM289.974 60.568C289.974 67.5902 288.47 73.6401 285.501 78.7539L287.231 79.7581C290.406 74.2905 291.974 67.8818 291.974 60.568H289.974ZM285.495 78.7644C282.596 83.9006 278.628 87.9086 273.58 90.8046L274.576 92.5394C279.939 89.4621 284.163 85.1927 287.237 79.7476L285.495 78.7644ZM273.585 90.802C268.63 93.6096 263.001 95.024 256.67 95.024V97.024C263.31 97.024 269.286 95.537 274.571 92.542L273.585 90.802ZM216.966 95V0.0239944H214.966V95H216.966ZM215.966 1.02399H235.934V-0.976006H215.966V1.02399ZM234.934 0.0239944V40.088H236.934V0.0239944H234.934ZM234.936 40.0252L233.656 60.3772L235.652 60.5028L236.932 40.1508L234.936 40.0252ZM233.654 60.4587L234.038 80.9387L236.038 80.9013L235.654 60.4212L233.654 60.4587ZM234.038 80.92V95H236.038V80.92H234.038ZM235.038 94H215.966V96H235.038V94ZM253.214 80.64C256.702 80.64 259.828 79.8331 262.56 78.1935L261.531 76.4785C259.144 77.9109 256.382 78.64 253.214 78.64V80.64ZM262.548 78.2008C265.36 76.5684 267.577 74.2553 269.196 71.2868L267.44 70.3291C265.987 72.9927 264.023 75.0316 261.544 76.4712L262.548 78.2008ZM269.191 71.2958C270.91 68.2205 271.75 64.6331 271.75 60.568H269.75C269.75 64.3536 268.969 67.5928 267.445 70.3202L269.191 71.2958ZM271.75 60.568C271.75 56.4229 270.912 52.8286 269.185 49.829L267.451 50.827C268.967 53.4594 269.75 56.6918 269.75 60.568H271.75ZM269.196 49.8491C267.577 46.8807 265.36 44.5676 262.548 42.9352L261.544 44.6648C264.023 46.1044 265.987 48.1433 267.44 50.8069L269.196 49.8491ZM262.56 42.9425C259.828 41.3028 256.702 40.496 253.214 40.496V42.496C256.382 42.496 259.144 43.2251 261.531 44.6575L262.56 42.9425ZM253.214 40.496C249.726 40.496 246.563 41.3029 243.752 42.9352L244.756 44.6648C247.236 43.2251 250.046 42.496 253.214 42.496V40.496ZM243.752 42.9352C240.94 44.5676 238.723 46.8807 237.104 49.8491L238.86 50.8069C240.313 48.1433 242.277 46.1044 244.756 44.6648L243.752 42.9352ZM237.104 49.8491C235.47 52.8444 234.678 56.4312 234.678 60.568H236.678C236.678 56.6835 237.422 53.4436 238.86 50.8069L237.104 49.8491ZM234.678 60.568C234.678 64.6247 235.472 68.2047 237.098 71.2759L238.866 70.3401C237.42 67.6086 236.678 64.362 236.678 60.568H234.678ZM237.104 71.2868C238.723 74.2553 240.94 76.5684 243.752 78.2008L244.756 76.4712C242.277 75.0316 240.313 72.9927 238.86 70.3291L237.104 71.2868ZM243.752 78.2008C246.563 79.8331 249.726 80.64 253.214 80.64V78.64C250.046 78.64 247.236 77.9109 244.756 76.4712L243.752 78.2008ZM345.456 95H344.456V96H345.456V95ZM345.456 81.56H346.456V81.352L346.373 81.1613L345.456 81.56ZM344.176 78.616H343.176V78.824L343.259 79.0147L344.176 78.616ZM340.208 44.568L339.526 45.299L339.532 45.3046L339.538 45.3101L340.208 44.568ZM317.424 42.776L317.726 43.7292L317.733 43.727L317.74 43.7247L317.424 42.776ZM308.464 47.384L307.575 47.841L308.131 48.9243L309.085 48.1675L308.464 47.384ZM301.296 33.432L300.72 32.6145L300.009 33.1154L300.407 33.889L301.296 33.432ZM314.864 27.288L314.6 26.3236L314.864 27.288ZM355.44 32.536L356.089 31.7752L355.44 32.536ZM364.144 95V96H365.144V95H364.144ZM310.64 93.336L310.201 94.2344L310.209 94.2384L310.217 94.2422L310.64 93.336ZM301.808 85.784L302.647 85.2398L301.808 85.784ZM301.68 64.408L300.848 63.8533L300.843 63.8614L300.837 63.8696L301.68 64.408ZM311.28 57.24L311.645 58.171L311.653 58.1679L311.661 58.1647L311.28 57.24ZM346.608 54.552H347.608V53.552H346.608V54.552ZM346.608 66.2V67.2H347.608V66.2H346.608ZM320.752 68.504L320.101 67.7447L320.092 67.7526L320.083 67.7607L320.752 68.504ZM321.136 80.408L320.52 81.1955L320.539 81.2102L320.558 81.224L321.136 80.408ZM338.416 80.28L338.918 81.1448L338.928 81.1388L338.939 81.1326L338.416 80.28ZM344.176 73.24L345.125 72.9238L344.248 70.2949L343.244 72.8776L344.176 73.24ZM347.248 82.456L348.198 82.7667L348.301 82.453L348.197 82.1398L347.248 82.456ZM339.312 92.568L338.798 91.7105L339.312 92.568ZM346.456 95V81.56H344.456V95H346.456ZM346.373 81.1613L345.093 78.2173L343.259 79.0147L344.539 81.9587L346.373 81.1613ZM345.176 78.616V54.552H343.176V78.616H345.176ZM345.176 54.552C345.176 50.0631 343.775 46.442 340.878 43.8259L339.538 45.3101C341.932 47.4727 343.176 50.5075 343.176 54.552H345.176ZM340.89 43.8369C338.067 41.2022 333.802 39.984 328.304 39.984V41.984C333.558 41.984 337.229 43.1551 339.526 45.299L340.89 43.8369ZM328.304 39.984C324.524 39.984 320.791 40.5997 317.108 41.8273L317.74 43.7247C321.225 42.563 324.745 41.984 328.304 41.984V39.984ZM317.122 41.8228C313.526 42.963 310.427 44.5512 307.843 46.6005L309.085 48.1675C311.451 46.2915 314.325 44.8077 317.726 43.7292L317.122 41.8228ZM309.353 46.927L302.185 32.975L300.407 33.889L307.575 47.841L309.353 46.927ZM301.872 34.2495C305.516 31.6823 309.928 29.6783 315.128 28.2524L314.6 26.3236C309.218 27.7991 304.586 29.891 300.72 32.6145L301.872 34.2495ZM315.128 28.2524C320.333 26.8253 325.62 26.112 330.992 26.112V24.112C325.441 24.112 319.976 24.8494 314.6 26.3236L315.128 28.2524ZM330.992 26.112C341.339 26.112 349.227 28.5513 354.791 33.2968L356.089 31.7752C350.047 26.622 341.637 24.112 330.992 24.112V26.112ZM354.791 33.2968C360.296 37.9922 363.144 45.3853 363.144 55.704H365.144C365.144 45.0307 362.189 36.9784 356.089 31.7752L354.791 33.2968ZM363.144 55.704V95H365.144V55.704H363.144ZM364.144 94H345.456V96H364.144V94ZM324.464 95.024C319.196 95.024 314.74 94.1458 311.063 92.4298L310.217 94.2422C314.22 96.1102 318.98 97.024 324.464 97.024V95.024ZM311.079 92.4376C307.38 90.6289 304.583 88.2252 302.647 85.2398L300.969 86.3282C303.129 89.6574 306.22 92.2885 310.201 94.2344L311.079 92.4376ZM302.647 85.2398C300.709 82.2517 299.736 78.9009 299.736 75.16H297.736C297.736 79.2697 298.811 83.0016 300.969 86.3282L302.647 85.2398ZM299.736 75.16C299.736 71.2305 300.675 67.8383 302.523 64.9464L300.837 63.8696C298.76 67.1217 297.736 70.8975 297.736 75.16H299.736ZM302.512 64.9627C304.42 62.1013 307.433 59.8229 311.645 58.171L310.915 56.309C306.423 58.0705 303.036 60.5707 300.848 63.8533L302.512 64.9627ZM311.661 58.1647C315.848 56.4405 321.38 55.552 328.304 55.552V53.552C321.234 53.552 315.416 54.4555 310.899 56.3153L311.661 58.1647ZM328.304 55.552H346.608V53.552H328.304V55.552ZM345.608 54.552V66.2H347.608V54.552H345.608ZM346.608 65.2H330.48V67.2H346.608V65.2ZM330.48 65.2C325.749 65.2 322.184 65.9595 320.101 67.7447L321.403 69.2633C322.904 67.9765 325.824 67.2 330.48 67.2V65.2ZM320.083 67.7607C318.165 69.4871 317.192 71.6776 317.192 74.264H319.192C319.192 72.2424 319.926 70.5929 321.421 69.2473L320.083 67.7607ZM317.192 74.264C317.192 77.1218 318.307 79.464 320.52 81.1955L321.752 79.6205C320.039 78.28 319.192 76.5262 319.192 74.264H317.192ZM320.558 81.224C322.83 82.8332 325.829 83.584 329.456 83.584V81.584C326.085 81.584 323.538 80.8841 321.714 79.592L320.558 81.224ZM329.456 83.584C332.944 83.584 336.107 82.7771 338.918 81.1448L337.914 79.4152C335.434 80.8549 332.624 81.584 329.456 81.584V83.584ZM338.939 81.1326C341.782 79.3897 343.839 76.8646 345.108 73.6024L343.244 72.8776C342.123 75.7594 340.34 77.9277 337.893 79.4274L338.939 81.1326ZM343.227 73.5562L346.299 82.7722L348.197 82.1398L345.125 72.9238L343.227 73.5562ZM346.298 82.1453C344.918 86.3644 342.422 89.536 338.798 91.7105L339.827 93.4255C343.882 90.992 346.677 87.4222 348.198 82.7667L346.298 82.1453ZM338.798 91.7105C335.158 93.8939 330.403 95.024 324.464 95.024V97.024C330.642 97.024 335.786 95.8501 339.827 93.4255L338.798 91.7105ZM382.216 95H381.216V96H382.216V95ZM382.216 0.0239944V-0.976006H381.216V0.0239944H382.216ZM402.184 0.0239944H403.184V-0.976006H402.184V0.0239944ZM402.184 95V96H403.184V95H402.184ZM383.216 95V0.0239944H381.216V95H383.216ZM382.216 1.02399H402.184V-0.976006H382.216V1.02399ZM401.184 0.0239944V95H403.184V0.0239944H401.184ZM402.184 94H382.216V96H402.184V94ZM477.164 28.44L476.703 29.3272L476.713 29.3327L476.724 29.3379L477.164 28.44ZM487.404 38.424L486.527 38.904L486.531 38.9111L487.404 38.424ZM491.116 95V96H492.116V95H491.116ZM471.148 95H470.148V96H471.148V95ZM467.436 46.36L466.694 47.0303L466.7 47.0368L466.706 47.0432L467.436 46.36ZM448.62 44.44L449.079 45.3283L449.091 45.3223L448.62 44.44ZM442.732 50.456L441.849 49.9868L441.843 49.9977L441.838 50.0088L442.732 50.456ZM440.684 95V96H441.684V95H440.684ZM420.716 95H419.716V96H420.716V95ZM420.716 0.0239944V-0.976006H419.716V0.0239944H420.716ZM440.684 0.0239944H441.684V-0.976006H440.684V0.0239944ZM440.684 45.208L439.895 45.8219L441.684 48.1225V45.208H440.684ZM436.204 39.448L435.323 38.9749L435.015 39.5482L435.415 40.0619L436.204 39.448ZM446.828 28.824L447.301 29.705L446.828 28.824ZM462.572 26.112C467.895 26.112 472.597 27.1922 476.703 29.3272L477.625 27.5528C473.198 25.2505 468.172 24.112 462.572 24.112V26.112ZM476.724 29.3379C480.878 31.3745 484.144 34.5502 486.527 38.904L488.281 37.944C485.714 33.2524 482.154 29.7722 477.604 27.5421L476.724 29.3379ZM486.531 38.9111C488.897 43.1538 490.116 48.6879 490.116 55.576H492.116C492.116 48.4695 490.861 42.5688 488.277 37.9369L486.531 38.9111ZM490.116 55.576V95H492.116V55.576H490.116ZM491.116 94H471.148V96H491.116V94ZM472.148 95V58.648H470.148V95H472.148ZM472.148 58.648C472.148 52.9784 470.887 48.5848 468.166 45.6768L466.706 47.0432C468.935 49.4258 470.148 53.2242 470.148 58.648H472.148ZM468.178 45.6897C465.554 42.7849 461.842 41.392 457.196 41.392V43.392C461.425 43.392 464.539 44.6444 466.694 47.0303L468.178 45.6897ZM457.196 41.392C453.889 41.392 450.867 42.1084 448.149 43.5576L449.091 45.3223C451.493 44.0409 454.188 43.392 457.196 43.392V41.392ZM448.161 43.5518C445.486 44.9353 443.384 47.0972 441.849 49.9868L443.615 50.9252C444.981 48.3534 446.805 46.5047 449.079 45.3282L448.161 43.5518ZM441.838 50.0088C440.381 52.9223 439.684 56.5881 439.684 60.952H441.684C441.684 56.7826 442.353 53.4511 443.626 50.9032L441.838 50.0088ZM439.684 60.952V95H441.684V60.952H439.684ZM440.684 94H420.716V96H440.684V94ZM421.716 95V0.0239944H419.716V95H421.716ZM420.716 1.02399H440.684V-0.976006H420.716V1.02399ZM439.684 0.0239944V45.208H441.684V0.0239944H439.684ZM441.473 44.5941L436.993 38.8341L435.415 40.0619L439.895 45.8219L441.473 44.5941ZM437.085 39.9211C439.467 35.4862 442.866 32.0867 447.301 29.705L446.355 27.943C441.574 30.5106 437.891 34.1938 435.323 38.9749L437.085 39.9211ZM447.301 29.705C451.746 27.3178 456.828 26.112 462.572 26.112V24.112C456.54 24.112 451.126 25.3808 446.355 27.943L447.301 29.705ZM522.9 91.416L522.421 92.2939L522.427 92.2969L522.9 91.416ZM509.46 78.872L508.604 79.3885L508.609 79.3965L508.614 79.4044L509.46 78.872ZM509.46 42.264L508.61 41.7376L508.607 41.7414L509.46 42.264ZM522.9 29.72L523.369 30.6035L523.373 30.6009L522.9 29.72ZM561.94 29.72L561.467 30.6009L561.477 30.6063L561.94 29.72ZM575.38 78.872L576.233 79.3946L576.236 79.3885L575.38 78.872ZM561.94 91.416L561.467 90.5351L561.94 91.416ZM551.444 77.336L551.946 78.2008L551.444 77.336ZM557.716 70.808L558.594 71.2869L558.6 71.2759L557.716 70.808ZM557.716 50.328L556.838 50.8069L557.716 50.328ZM551.444 43.8L550.942 44.6648L551.444 43.8ZM533.524 43.8L534.026 44.6648L533.524 43.8ZM527.124 50.328L526.257 49.829L526.252 49.839L526.246 49.8491L527.124 50.328ZM527.124 70.808L526.24 71.2759L526.249 71.2916L526.257 71.307L527.124 70.808ZM533.524 77.336L534.026 76.4712L533.524 77.336ZM542.484 95.024C535.289 95.024 528.927 93.5192 523.373 90.5351L522.427 92.2969C528.308 95.4568 535.002 97.024 542.484 97.024V95.024ZM523.379 90.5381C517.893 87.5457 513.541 83.4816 510.306 78.3395L508.614 79.4044C512.035 84.8437 516.643 89.1423 522.421 92.2939L523.379 90.5381ZM510.316 78.3555C507.176 73.1489 505.596 67.2291 505.596 60.568H503.596C503.596 67.5602 505.259 73.8431 508.604 79.3885L510.316 78.3555ZM505.596 60.568C505.596 53.8188 507.177 47.9025 510.313 42.7866L508.607 41.7414C505.258 47.2068 503.596 53.4932 503.596 60.568H505.596ZM510.31 42.7904C513.544 37.5664 517.892 33.5078 523.369 30.6035L522.432 28.8365C516.644 31.9056 512.032 36.2096 508.61 41.7376L510.31 42.7904ZM523.373 30.6009C528.927 27.6168 535.289 26.112 542.484 26.112V24.112C535.002 24.112 528.308 25.6792 522.427 28.8391L523.373 30.6009ZM542.484 26.112C549.592 26.112 555.911 27.6159 561.467 30.6009L562.413 28.8391C556.534 25.6801 549.883 24.112 542.484 24.112V26.112ZM561.477 30.6063C567.041 33.5127 571.383 37.5284 574.527 42.6586L576.233 41.6134C572.892 36.1622 568.274 31.9006 562.403 28.8336L561.477 30.6063ZM574.527 42.6586C577.662 47.7726 579.244 53.731 579.244 60.568H581.244C581.244 53.4104 579.584 47.0807 576.233 41.6134L574.527 42.6586ZM579.244 60.568C579.244 67.2291 577.664 73.1489 574.524 78.3555L576.236 79.3885C579.581 73.8431 581.244 67.5602 581.244 60.568H579.244ZM574.527 78.3494C571.382 83.4821 567.036 87.5429 561.467 90.5351L562.413 92.2969C568.279 89.1451 572.893 84.8432 576.233 79.3946L574.527 78.3494ZM561.467 90.5351C555.911 93.5201 549.592 95.024 542.484 95.024V97.024C549.883 97.024 556.534 95.4559 562.413 92.2969L561.467 90.5351ZM542.484 80.64C545.972 80.64 549.135 79.8331 551.946 78.2008L550.942 76.4712C548.462 77.9109 545.652 78.64 542.484 78.64V80.64ZM551.946 78.2008C554.758 76.5684 556.975 74.2553 558.594 71.2868L556.838 70.3291C555.385 72.9927 553.421 75.0316 550.942 76.4712L551.946 78.2008ZM558.6 71.2759C560.226 68.2047 561.02 64.6247 561.02 60.568H559.02C559.02 64.362 558.278 67.6086 556.832 70.3401L558.6 71.2759ZM561.02 60.568C561.02 56.4312 560.228 52.8444 558.594 49.8491L556.838 50.8069C558.276 53.4436 559.02 56.6835 559.02 60.568H561.02ZM558.594 49.8491C556.975 46.8807 554.758 44.5676 551.946 42.9352L550.942 44.6648C553.421 46.1044 555.385 48.1433 556.838 50.8069L558.594 49.8491ZM551.946 42.9352C549.135 41.3029 545.972 40.496 542.484 40.496V42.496C545.652 42.496 548.462 43.2251 550.942 44.6648L551.946 42.9352ZM542.484 40.496C538.996 40.496 535.833 41.3029 533.022 42.9352L534.026 44.6648C536.506 43.2251 539.316 42.496 542.484 42.496V40.496ZM533.022 42.9352C530.216 44.5646 527.96 46.8711 526.257 49.829L527.991 50.827C529.53 48.1529 531.542 46.1074 534.026 44.6648L533.022 42.9352ZM526.246 49.8491C524.612 52.8444 523.82 56.4312 523.82 60.568H525.82C525.82 56.6835 526.564 53.4436 528.002 50.8069L526.246 49.8491ZM523.82 60.568C523.82 64.6247 524.614 68.2047 526.24 71.2759L528.008 70.3401C526.562 67.6086 525.82 64.362 525.82 60.568H523.82ZM526.257 71.307C527.96 74.2649 530.216 76.5714 533.022 78.2008L534.026 76.4712C531.542 75.0286 529.53 72.9831 527.991 70.309L526.257 71.307ZM533.022 78.2008C535.833 79.8331 538.996 80.64 542.484 80.64V78.64C539.316 78.64 536.506 77.9109 534.026 76.4712L533.022 78.2008ZM599.735 93.976L599.474 94.9415L599.483 94.9439L599.492 94.9461L599.735 93.976ZM586.935 88.6L586.028 88.1789L585.669 88.9516L586.375 89.4286L586.935 88.6ZM593.591 74.264L594.119 73.4147L593.16 72.8184L592.684 73.8429L593.591 74.264ZM604.727 79.128L604.44 80.0858L604.451 80.0892L604.462 80.0923L604.727 79.128ZM627.255 79.256L626.763 78.3854L626.755 78.3902L626.746 78.3951L627.255 79.256ZM627.895 71.064L627.388 71.9259L627.417 71.9432L627.448 71.9584L627.895 71.064ZM622.007 69.144L621.837 70.1295L622.007 69.144ZM613.815 67.864L613.669 68.8534L613.674 68.854L613.815 67.864ZM604.983 66.2L604.734 67.1685L604.747 67.1719L604.76 67.1749L604.983 66.2ZM596.791 62.872L597.297 62.0093L596.791 62.872ZM590.775 56.984L589.912 57.4897L589.919 57.5006L589.925 57.5114L590.775 56.984ZM592.311 35.864L591.518 35.2543L591.513 35.2607L591.509 35.2673L592.311 35.864ZM603.319 28.056L603.685 28.9868L603.692 28.9839L603.699 28.981L603.319 28.056ZM634.807 26.648L635.013 25.6694L634.807 26.648ZM646.967 31.128L647.873 31.5522L648.254 30.738L647.485 30.2725L646.967 31.128ZM640.311 45.336L639.803 46.1974L640.75 46.7559L641.217 45.7602L640.311 45.336ZM630.199 41.368L629.974 42.3424L629.988 42.3457L630.003 42.3486L630.199 41.368ZM610.743 42.008L610.239 41.1442L610.743 42.008ZM609.847 50.456L609.34 51.3179L609.351 51.3242L609.361 51.3302L609.847 50.456ZM623.927 53.912L623.781 54.9014L623.797 54.9037L623.813 54.9055L623.927 53.912ZM632.887 55.576L633.136 54.6075L632.887 55.576ZM640.951 58.904L640.432 59.7588L640.45 59.7696L640.468 59.7796L640.951 58.904ZM646.967 64.664L646.117 65.1914L646.122 65.1981L646.126 65.2048L646.967 64.664ZM645.431 85.528L646.216 86.1477L646.224 86.1377L645.431 85.528ZM634.295 93.208L633.935 92.2751L633.929 92.2773L634.295 93.208ZM616.759 95.024C610.949 95.024 605.356 94.3505 599.978 93.0059L599.492 94.9461C605.037 96.3322 610.793 97.024 616.759 97.024V95.024ZM599.996 93.0105C594.682 91.5766 590.529 89.8215 587.495 87.7714L586.375 89.4286C589.656 91.6452 594.036 93.4741 599.474 94.9415L599.996 93.0105ZM587.842 89.0211L594.498 74.6851L592.684 73.8429L586.028 88.1789L587.842 89.0211ZM593.063 75.1133C596.309 77.1307 600.104 78.7853 604.44 80.0858L605.014 78.1702C600.816 76.9107 597.188 75.3226 594.119 73.4147L593.063 75.1133ZM604.462 80.0923C608.894 81.3088 613.249 81.92 617.527 81.92V79.92C613.442 79.92 609.264 79.3365 604.992 78.1637L604.462 80.0923ZM617.527 81.92C622.156 81.92 625.637 81.3735 627.764 80.1169L626.746 78.3951C625.118 79.3571 622.115 79.92 617.527 79.92V81.92ZM627.747 80.1266C629.968 78.8715 631.199 77.0313 631.199 74.648H629.199C629.199 76.19 628.468 77.4218 626.763 78.3854L627.747 80.1266ZM631.199 74.648C631.199 73.6735 630.966 72.7758 630.464 71.9952C629.965 71.218 629.237 70.6171 628.342 70.1696L627.448 71.9584C628.089 72.2789 628.513 72.6594 628.782 73.0768C629.048 73.4908 629.199 74.0012 629.199 74.648H631.199ZM628.402 70.2021C626.809 69.2653 624.718 68.5966 622.177 68.1585L621.837 70.1295C624.246 70.5447 626.079 71.1561 627.388 71.9259L628.402 70.2021ZM622.177 68.1585C619.691 67.7299 616.951 67.3018 613.956 66.874L613.674 68.854C616.653 69.2795 619.374 69.7047 621.837 70.1295L622.177 68.1585ZM613.961 66.8746C611.086 66.452 608.168 65.9022 605.206 65.2251L604.76 67.1749C607.771 67.8631 610.741 68.4227 613.669 68.8534L613.961 66.8746ZM605.232 65.2315C602.329 64.4849 599.685 63.4095 597.297 62.0093L596.285 63.7347C598.846 65.2358 601.664 66.3791 604.734 67.1685L605.232 65.2315ZM597.297 62.0093C594.964 60.6421 593.076 58.7954 591.625 56.4566L589.925 57.5114C591.546 60.1219 593.668 62.2005 596.285 63.7347L597.297 62.0093ZM591.638 56.4783C590.304 54.2034 589.599 51.1944 589.599 47.384H587.599C587.599 51.4243 588.345 54.8153 589.912 57.4897L591.638 56.4783ZM589.599 47.384C589.599 43.2356 590.774 39.6073 593.113 36.4607L591.509 35.2673C588.899 38.7767 587.599 42.8284 587.599 47.384H589.599ZM593.104 36.4737C595.531 33.3184 599.037 30.8125 603.685 28.9868L602.953 27.1252C598.043 29.0541 594.211 31.7536 591.518 35.2543L593.104 36.4737ZM603.699 28.981C608.328 27.0799 613.909 26.112 620.471 26.112V24.112C613.721 24.112 607.868 25.1068 602.939 27.131L603.699 28.981ZM620.471 26.112C625.091 26.112 629.801 26.616 634.601 27.6265L635.013 25.6694C630.085 24.632 625.237 24.112 620.471 24.112V26.112ZM634.601 27.6265C639.387 28.6342 643.328 30.0941 646.449 31.9835L647.485 30.2725C644.121 28.2366 639.955 26.7098 635.013 25.6694L634.601 27.6265ZM646.061 30.7038L639.405 44.9118L641.217 45.7602L647.873 31.5522L646.061 30.7038ZM640.819 44.4746C637.405 42.4613 633.93 41.0943 630.395 40.3874L630.003 42.3486C633.295 43.007 636.561 44.2854 639.803 46.1974L640.819 44.4746ZM630.424 40.3936C627.028 39.61 623.71 39.216 620.471 39.216V41.216C623.547 41.216 626.714 41.59 629.974 42.3424L630.424 40.3936ZM620.471 39.216C615.987 39.216 612.523 39.812 610.239 41.1442L611.247 42.8718C613.059 41.8146 616.081 41.216 620.471 41.216V39.216ZM610.239 41.1442C607.977 42.4635 606.671 44.2865 606.671 46.616H608.671C608.671 45.1908 609.413 43.9418 611.247 42.8718L610.239 41.1442ZM606.671 46.616C606.671 48.6709 607.579 50.2818 609.34 51.3179L610.354 49.5941C609.214 48.9235 608.671 47.9744 608.671 46.616H606.671ZM609.361 51.3302C611.015 52.249 613.126 52.9589 615.66 53.4833L616.066 51.5247C613.651 51.0251 611.751 50.3697 610.333 49.5818L609.361 51.3302ZM615.66 53.4833C618.157 53.9997 620.864 54.4723 623.781 54.9014L624.073 52.9226C621.187 52.4984 618.519 52.0323 616.066 51.5247L615.66 53.4833ZM623.813 54.9055C626.753 55.2415 629.695 55.7877 632.638 56.5445L633.136 54.6075C630.106 53.8283 627.074 53.2652 624.041 52.9185L623.813 54.9055ZM632.638 56.5445C635.539 57.2905 638.135 58.364 640.432 59.7588L641.47 58.0492C638.989 56.5426 636.208 55.3975 633.136 54.6075L632.638 56.5445ZM640.468 59.7796C642.788 61.0596 644.669 62.8576 646.117 65.1914L647.817 64.1366C646.193 61.521 644.063 59.4791 641.434 58.0284L640.468 59.7796ZM646.126 65.2048C647.526 67.3822 648.271 70.3318 648.271 74.136H650.271C650.271 70.0895 649.48 66.7245 647.808 64.1232L646.126 65.2048ZM648.271 74.136C648.271 78.186 647.062 81.7681 644.638 84.9183L646.224 86.1377C648.92 82.6319 650.271 78.6193 650.271 74.136H648.271ZM644.646 84.9084C642.223 87.9781 638.675 90.4456 633.935 92.2751L634.655 94.1409C639.643 92.2158 643.519 89.5633 646.216 86.1476L644.646 84.9084ZM633.929 92.2773C629.3 94.096 623.587 95.024 616.759 95.024V97.024C623.755 97.024 629.733 96.0747 634.661 94.1387L633.929 92.2773Z" fill="#D9D9D9" fill-opacity="0.17"/>
</svg>
