<svg width="33" height="31" viewBox="0 0 33 31" fill="none" xmlns="http://www.w3.org/2000/svg">
<path d="M15.4859 0.000992163C14.4624 0.0228871 13.4733 0.541066 12.9241 1.45024C12.6865 1.84342 12.4914 2.63482 12.3319 3.56721C9.8064 4.12566 7.06559 6.76731 5.85036 9.83088C7.89738 10.564 9.94113 10.7719 11.7028 10.5896C7.5855 17.1405 8.27096 24.4368 15.0152 24.4378C15.6441 24.4378 16.2192 24.3775 16.7418 24.2595C20.7548 25.9036 23.7381 25.1881 25.2666 23.3679C26.8224 21.5153 26.8594 18.7328 25.4966 16.5713C24.249 14.5926 23.649 13.0353 23.6898 11.9291C23.7304 10.8228 24.2797 10.062 25.7634 9.34979L25.182 8.24243C23.441 9.07816 22.4493 10.3425 22.3925 11.8854C22.3356 13.4284 23.0807 15.1451 24.3838 17.212C25.4825 18.9544 25.4069 21.2191 24.2537 22.5923C23.2514 23.786 21.4261 24.4668 18.4684 23.5585C22.1575 21.2174 21.3415 14.6244 17.0867 8.94944C17.6487 9.12228 18.1272 9.22943 18.4489 9.22943C20.1229 9.22923 21.4814 7.93279 21.4814 6.33287C21.4814 4.75796 20.1646 3.4781 18.527 3.43843C18.7602 2.26207 18.211 1.0209 17.065 0.388399C16.5667 0.113519 16.0219 -0.0107514 15.4858 0.00072679L15.4859 0.000992163ZM5.73117 22.3375C2.24971 23.2416 0 24.5798 0 26.0654C0 28.7868 7.39586 31 16.5011 31C25.6064 31 33 28.7869 33 26.0654C33 24.5852 30.7701 23.2416 27.3101 22.3375C28.5063 22.9266 29.2212 23.6141 29.2212 24.3569C29.2212 26.4887 23.5076 28.2424 16.5011 28.2424C9.49466 28.2424 3.82222 26.4885 3.82222 24.3569C3.82222 23.6102 4.52281 22.9285 5.7311 22.3374L5.73117 22.3375Z" fill="white"/>
</svg>
